<?xml version="1.0" standalone="no"?>
<!DOCTYPE svg PUBLIC "-//W3C//DTD SVG 20010904//EN"
 "http://www.w3.org/TR/2001/REC-SVG-20010904/DTD/svg10.dtd">
<svg version="1.0" xmlns="http://www.w3.org/2000/svg"
 width="3242.000000pt" height="3102.000000pt" viewBox="0 0 3242.000000 3102.000000"
 preserveAspectRatio="xMidYMid meet">

<g transform="translate(0.000000,3102.000000) scale(0.100000,-0.100000)"
fill="#000000" stroke="none">
<path d="M5780 31003 c-315 -14 -897 -97 -1155 -164 -169 -44 -577 -171 -695
-216 -144 -55 -192 -74 -238 -94 -26 -12 -60 -27 -77 -34 -128 -53 -408 -191
-505 -250 -51 -30 -97 -55 -102 -55 -5 0 -11 -7 -14 -15 -4 -8 -10 -12 -15
-10 -4 3 -17 -3 -29 -15 -11 -11 -23 -19 -26 -19 -3 1 -41 -22 -84 -50 -43
-27 -89 -56 -104 -62 -14 -7 -26 -16 -26 -21 0 -4 -5 -8 -11 -8 -6 0 -24 -10
-39 -22 -16 -13 -52 -39 -80 -58 -28 -19 -71 -51 -95 -70 -24 -19 -73 -57
-109 -84 -36 -27 -66 -53 -66 -57 0 -5 -4 -8 -8 -6 -4 1 -28 -15 -52 -35 -25
-21 -72 -59 -105 -85 -89 -72 -123 -102 -187 -164 -32 -31 -58 -54 -58 -51 0
2 -22 -17 -50 -44 -27 -26 -46 -52 -43 -57 3 -6 2 -7 -3 -4 -10 6 -43 -27
-171 -168 -40 -44 -83 -90 -95 -103 -12 -13 -30 -35 -40 -50 -10 -15 -18 -23
-18 -19 0 4 -23 -20 -52 -55 -29 -35 -55 -65 -58 -68 -12 -10 -310 -410 -305
-410 3 0 -5 -11 -16 -24 -12 -13 -21 -28 -22 -33 -1 -8 -9 -20 -35 -48 -7 -8
-11 -15 -7 -15 3 0 -4 -10 -15 -22 -11 -13 -23 -33 -26 -45 -4 -13 -10 -23
-15 -23 -5 0 -16 -18 -25 -40 -9 -22 -20 -40 -25 -40 -5 0 -8 -3 -7 -7 3 -9
-32 -65 -47 -75 -6 -5 -6 -8 0 -8 6 0 6 -3 -1 -8 -15 -10 -74 -113 -123 -217
-116 -245 -134 -282 -146 -305 -7 -14 -36 -81 -65 -150 -28 -69 -55 -134 -60
-145 -47 -105 -173 -472 -183 -533 -3 -15 -10 -40 -16 -56 -6 -16 -9 -31 -6
-34 2 -3 1 -10 -4 -16 -8 -10 -51 -177 -56 -216 -1 -8 -4 -24 -8 -35 -32 -100
-109 -592 -123 -785 -3 -47 -9 -105 -12 -130 -4 -25 -8 -4421 -10 -9770 -2
-8779 -1 -9747 13 -9955 9 -126 22 -277 31 -335 8 -58 16 -121 19 -140 8 -68
26 -171 46 -267 11 -54 22 -109 25 -123 3 -14 12 -50 20 -80 8 -30 17 -67 19
-82 5 -31 23 -106 32 -128 3 -8 7 -22 8 -30 5 -31 37 -148 65 -235 73 -226
101 -307 119 -347 23 -51 54 -121 55 -128 14 -51 116 -283 133 -302 9 -10 13
-18 9 -18 -6 0 82 -170 93 -180 3 -3 7 -11 9 -18 3 -15 91 -174 101 -182 3 -3
7 -11 9 -19 2 -8 13 -28 25 -45 12 -17 22 -34 22 -39 0 -4 12 -22 26 -40 14
-17 28 -39 31 -47 6 -17 168 -262 177 -270 4 -3 17 -21 28 -40 12 -19 35 -48
52 -64 17 -17 31 -34 31 -38 0 -18 159 -220 266 -338 32 -36 76 -87 98 -113
21 -25 43 -44 49 -40 6 3 7 1 3 -5 -3 -6 4 -19 17 -29 12 -10 38 -37 56 -60
19 -23 37 -41 40 -38 4 2 17 -12 30 -31 13 -18 27 -31 32 -28 5 3 8 0 7 -8 -2
-7 3 -12 10 -10 6 1 12 -2 12 -6 0 -14 56 -72 69 -72 7 0 9 -4 6 -10 -3 -5 -3
-10 2 -10 4 0 25 -16 46 -35 21 -19 43 -35 49 -35 6 0 8 -3 5 -6 -3 -4 6 -16
21 -28 23 -18 125 -103 202 -169 71 -61 130 -108 130 -104 0 2 19 -13 42 -35
23 -21 47 -38 55 -38 7 0 13 -4 13 -9 0 -5 17 -20 37 -32 21 -13 40 -26 43
-29 9 -10 55 -37 64 -38 5 0 13 -7 18 -16 5 -9 13 -14 19 -11 5 4 9 1 9 -4 0
-6 5 -11 10 -11 6 0 21 -9 33 -21 12 -11 35 -28 52 -36 16 -9 35 -22 43 -29 7
-8 17 -12 22 -9 4 3 11 -2 14 -11 3 -8 10 -13 15 -9 6 3 14 -3 20 -12 6 -10
11 -15 11 -11 0 4 9 0 20 -10 12 -9 24 -17 28 -17 4 0 14 -6 22 -13 26 -23
132 -82 146 -82 8 0 14 -5 14 -11 0 -5 4 -7 10 -4 5 3 10 2 10 -4 0 -6 30 -25
68 -43 37 -18 69 -35 72 -38 9 -9 173 -88 260 -125 47 -20 119 -51 160 -69 41
-19 100 -43 130 -54 30 -11 84 -32 120 -45 36 -14 92 -32 125 -42 33 -9 71
-21 85 -27 32 -13 198 -67 313 -103 77 -23 199 -51 372 -86 28 -5 73 -12 100
-15 28 -3 53 -8 57 -10 35 -22 512 -78 784 -93 229 -13 20768 -13 20964 -1
131 9 221 18 484 51 142 18 195 26 263 42 11 3 43 9 70 12 58 9 255 50 338 71
33 9 67 17 75 19 92 19 349 97 464 141 182 70 222 87 274 110 29 13 54 24 57
24 2 0 39 16 82 36 43 21 83 38 88 40 6 1 39 18 75 37 36 19 100 52 143 72 42
21 77 42 77 47 0 4 6 8 13 8 15 0 301 169 305 181 2 5 8 9 14 9 6 0 26 11 44
25 18 14 37 25 41 25 5 0 19 9 31 20 11 11 54 40 94 66 138 86 280 187 326
231 7 7 16 13 20 13 4 0 27 18 51 40 25 22 47 40 50 40 4 0 24 17 46 38 22 21
52 47 67 56 15 10 25 23 21 29 -3 5 -1 7 4 4 6 -4 28 12 48 34 21 23 61 62 89
87 28 25 50 50 48 55 -1 5 1 6 6 3 10 -6 53 39 46 48 -2 3 -1 4 3 1 9 -7 34
16 27 26 -3 5 0 9 7 9 6 0 28 17 48 38 112 119 146 158 143 164 -1 5 2 7 6 6
11 -4 202 218 195 226 -4 3 2 6 12 6 10 0 16 3 12 6 -3 4 9 23 28 43 19 20 38
44 41 54 3 9 9 17 13 17 5 0 21 17 37 38 19 25 22 32 9 22 -11 -8 -1 5 22 29
24 24 41 47 38 51 -3 5 1 12 8 17 20 12 147 200 140 207 -4 3 -2 6 4 6 5 0 25
24 43 53 18 28 54 84 80 122 25 39 47 72 47 75 0 3 20 37 44 75 78 122 89 142
82 148 -3 4 -2 7 4 7 12 0 143 259 143 283 0 8 5 17 11 19 5 2 11 10 13 18 1
8 15 41 29 74 15 32 27 60 27 63 0 2 10 25 21 51 12 25 22 51 23 57 2 5 10 28
20 50 10 22 18 48 19 57 1 10 4 18 7 18 4 0 11 15 17 33 6 17 21 57 33 87 64
164 162 484 200 654 12 50 25 109 30 131 51 220 103 618 120 930 13 224 21
15624 9 18100 -6 1306 -10 1564 -23 1700 -15 144 -31 275 -40 330 -2 11 -6 43
-10 70 -18 133 -29 199 -52 310 -21 105 -41 184 -124 490 -27 101 -102 314
-150 430 -23 55 -55 132 -70 170 -74 187 -245 548 -267 564 -5 3 -19 28 -33
55 -13 27 -38 70 -54 95 -17 25 -30 48 -31 51 -4 23 -161 270 -179 282 -6 4
-7 8 -2 8 4 0 -8 20 -28 44 -20 24 -36 48 -36 53 0 4 -13 22 -28 39 -15 18
-34 42 -42 55 -8 13 -28 37 -45 53 -16 16 -23 26 -15 21 27 -16 -221 287 -301
368 -26 26 -45 47 -42 47 2 0 -2 6 -9 14 -7 8 -16 12 -21 9 -4 -2 -6 0 -5 5 4
11 -156 182 -170 182 -6 0 -14 5 -18 12 -5 7 -2 9 7 4 8 -5 -6 12 -31 36 -25
25 -48 43 -51 42 -3 -2 -21 15 -38 36 -18 23 -37 37 -43 34 -6 -4 -8 -3 -5 3
4 6 -6 19 -21 29 -15 9 -36 27 -47 38 -11 12 -40 37 -65 56 -24 19 -52 42 -60
50 -17 16 -87 75 -156 131 -23 19 -61 50 -84 69 -24 19 -66 50 -94 69 -28 19
-53 37 -56 41 -12 14 -140 100 -140 94 0 -4 -6 -1 -12 8 -7 9 -27 25 -44 35
-18 10 -72 43 -120 74 -49 31 -111 68 -139 84 -126 70 -253 139 -314 169 -36
18 -75 38 -86 44 -88 50 -648 274 -713 285 -9 2 -37 10 -62 19 -92 34 -395
118 -480 134 -14 2 -99 20 -190 38 -91 19 -189 37 -217 40 -29 3 -103 12 -165
20 -158 22 -184 25 -348 43 -133 15 -983 17 -10570 18 -5734 1 -10454 0
-10490 -2z m13261 -2718 c188 -28 452 -133 624 -247 113 -75 337 -300 410
-411 126 -192 207 -390 241 -587 23 -132 15 -436 -15 -565 -60 -260 -186 -504
-343 -665 -62 -64 -321 -287 -552 -475 -34 -27 -149 -124 -256 -215 -108 -91
-253 -212 -324 -270 -116 -94 -246 -205 -346 -294 -84 -75 -243 -209 -337
-284 -56 -46 -128 -106 -160 -135 -75 -69 -302 -262 -451 -384 -64 -53 -227
-192 -362 -308 -135 -116 -344 -294 -465 -395 -121 -101 -282 -236 -357 -300
-76 -63 -188 -155 -250 -205 -62 -49 -184 -153 -272 -229 -88 -77 -226 -194
-305 -260 -165 -138 -224 -188 -486 -411 -322 -274 -348 -295 -430 -350 -107
-71 -181 -107 -306 -148 -295 -99 -522 -109 -809 -37 -285 71 -462 168 -682
371 -100 92 -141 142 -229 275 -292 440 -319 1015 -72 1509 137 272 186 322
1063 1075 230 198 611 520 775 655 99 83 230 192 291 243 60 51 201 171 314
265 113 95 273 231 355 302 213 185 459 393 610 516 72 59 232 194 356 300
277 238 415 355 584 495 72 59 166 139 210 177 196 170 427 368 510 437 50 41
149 124 220 183 150 125 198 159 328 226 136 72 301 124 487 154 64 11 343 6
431 -8z m2125 -3276 c190 -26 396 -113 523 -221 83 -70 156 -150 383 -421 84
-100 199 -238 257 -307 58 -69 139 -165 180 -215 41 -49 127 -150 191 -224
112 -130 148 -173 424 -501 71 -85 164 -193 205 -239 42 -46 117 -132 166
-191 50 -59 151 -177 226 -261 151 -172 294 -338 663 -774 42 -49 104 -122
139 -161 68 -77 324 -371 482 -554 55 -63 146 -169 202 -235 55 -66 147 -169
203 -230 212 -229 301 -355 351 -497 49 -140 63 -227 63 -408 1 -156 -1 -171
-31 -280 -39 -138 -70 -220 -119 -309 -77 -141 -148 -211 -474 -471 -164 -131
-303 -247 -435 -365 -44 -40 -125 -107 -180 -151 -55 -43 -174 -142 -265 -219
-91 -78 -239 -204 -329 -280 -187 -159 -255 -218 -542 -467 -226 -195 -614
-524 -784 -663 -61 -49 -204 -171 -320 -270 -115 -100 -262 -224 -325 -277
-63 -52 -158 -133 -211 -179 -191 -166 -436 -377 -549 -471 -63 -52 -182 -155
-264 -227 -174 -154 -316 -271 -403 -329 -236 -160 -510 -220 -797 -177 -256
39 -461 142 -646 325 -99 99 -360 398 -440 506 -32 43 -62 73 -73 74 -10 0
-42 -22 -70 -48 -29 -27 -110 -97 -182 -157 -173 -144 -580 -486 -658 -553
-186 -161 -313 -222 -552 -266 -238 -43 -518 -23 -746 55 -48 16 -96 29 -107
29 -11 0 -32 -15 -47 -32 -15 -18 -66 -76 -114 -128 -100 -109 -269 -299 -485
-545 -83 -93 -173 -195 -202 -225 -28 -30 -86 -94 -128 -142 -42 -49 -110
-127 -152 -175 -42 -49 -152 -169 -244 -268 -92 -99 -206 -227 -255 -285 -48
-58 -178 -204 -289 -325 -111 -121 -253 -281 -316 -355 -140 -166 -318 -366
-426 -480 -45 -47 -128 -139 -185 -204 -184 -211 -431 -489 -493 -557 -34 -36
-101 -112 -151 -169 -49 -58 -187 -210 -305 -340 -119 -129 -337 -370 -485
-535 -149 -164 -306 -338 -350 -385 -44 -47 -110 -119 -145 -160 -143 -165
-389 -441 -490 -550 -59 -63 -129 -140 -156 -171 -124 -141 -398 -443 -479
-529 -84 -88 -231 -252 -400 -445 -87 -100 -80 -92 -141 -156 -118 -127 -409
-452 -583 -653 -62 -72 -161 -183 -220 -246 -59 -63 -173 -192 -253 -285 -80
-94 -193 -220 -250 -280 -141 -149 -184 -196 -339 -371 -74 -83 -224 -250
-334 -370 -110 -121 -249 -275 -310 -344 -60 -69 -114 -130 -120 -136 -5 -6
-82 -87 -171 -180 -195 -205 -224 -238 -349 -384 -54 -63 -175 -198 -270 -300
-94 -102 -206 -224 -247 -271 -171 -192 -336 -328 -497 -409 -241 -120 -482
-180 -729 -180 -162 0 -238 9 -403 50 -258 64 -522 204 -749 397 -127 109
-384 360 -503 493 -67 74 -124 137 -127 140 -14 12 -254 284 -336 379 -137
159 -401 506 -474 623 -81 130 -180 328 -218 438 -40 116 -78 308 -93 468 -34
377 71 777 283 1075 141 199 251 290 1234 1017 78 58 321 240 540 406 220 165
525 392 679 504 154 112 298 218 320 236 22 18 61 47 87 66 25 18 122 91 215
163 291 224 345 265 478 364 72 54 220 165 329 247 110 82 218 162 240 178 23
17 70 53 106 81 36 28 173 129 305 225 246 178 431 316 685 511 80 61 163 123
185 137 22 13 117 84 210 157 94 72 244 185 335 250 273 196 351 253 440 320
258 195 926 692 1055 784 83 59 286 209 451 332 394 293 1292 958 1470 1089
56 41 162 120 235 176 74 55 211 155 304 222 94 66 204 147 246 179 139 106
461 346 674 503 116 84 271 199 345 255 74 55 182 134 240 175 58 41 243 174
412 297 169 123 330 238 358 255 27 17 50 36 50 43 0 7 -9 32 -19 56 -47 108
-74 435 -52 624 39 328 156 564 393 790 86 83 98 93 432 367 109 90 244 200
300 246 56 46 123 95 149 108 l48 25 -28 33 c-15 19 -52 62 -82 97 -29 35 -94
113 -145 173 -50 60 -179 213 -286 340 -208 245 -254 304 -314 402 -78 128
-122 347 -112 551 10 186 45 316 135 498 74 151 144 234 328 391 76 65 176
152 223 194 88 79 294 255 412 351 36 29 129 108 205 174 259 225 418 361 533
455 63 52 117 96 120 100 7 8 364 315 425 365 108 88 314 263 385 325 41 37
140 118 220 180 80 62 174 139 210 170 36 32 108 93 160 136 53 44 140 118
195 165 722 624 1504 1284 1685 1422 133 102 344 188 515 210 65 9 238 6 311
-4z m6083 -6699 c308 -32 653 -186 859 -384 82 -78 217 -242 270 -327 85 -135
163 -339 203 -530 18 -92 20 -126 16 -289 -8 -264 -45 -424 -153 -648 -65
-138 -127 -232 -198 -305 -65 -66 -266 -237 -471 -400 -82 -66 -193 -157 -245
-201 -112 -96 -359 -302 -480 -399 -47 -38 -132 -110 -190 -160 -144 -126
-349 -299 -445 -377 -44 -36 -148 -123 -231 -195 -187 -162 -296 -254 -494
-419 -85 -71 -231 -195 -325 -276 -93 -81 -264 -229 -380 -328 -115 -99 -266
-229 -335 -289 -69 -59 -161 -137 -205 -173 -44 -36 -171 -147 -283 -247 -112
-100 -256 -226 -320 -280 -64 -54 -182 -155 -260 -225 -519 -463 -751 -601
-1116 -663 -112 -19 -330 -19 -461 0 -411 59 -764 264 -1008 583 -92 122 -133
191 -184 317 -59 144 -89 255 -109 406 -15 117 -16 150 -5 278 14 165 31 262
67 371 38 115 136 307 201 395 73 98 238 258 443 430 85 71 205 172 265 225
94 82 238 204 310 261 11 9 128 108 260 220 132 112 290 244 350 294 61 49
157 130 214 180 112 96 339 289 467 395 43 36 164 139 269 230 182 158 388
332 903 763 283 237 379 319 532 453 101 88 553 468 636 534 85 68 335 280
398 338 91 84 287 230 372 278 244 136 554 195 863 164z m21 -10266 c147 -28
324 -100 460 -189 132 -86 288 -269 365 -428 61 -128 76 -190 82 -349 l6 -138
-6053 0 -6053 0 6 103 c14 232 69 376 223 593 115 161 319 305 524 368 186 58
-161 54 5311 55 4535 1 5055 -1 5129 -15z m1595 -2132 c223 -44 366 -97 515
-191 192 -120 390 -312 508 -490 113 -172 216 -447 242 -643 7 -55 10 -346 8
-866 l-3 -782 -7964 0 c-4379 0 -7966 2 -7970 4 -3 2 -6 375 -5 828 1 925 -5
846 79 1087 80 228 197 427 342 581 269 285 600 450 983 489 47 5 3011 8 6620
7 l6535 -2 110 -22z"/>
</g>
</svg>
